<svg xmlns="http://www.w3.org/2000/svg" viewBox="0 0 32 32">
  <rect width="32" height="32" rx="8" fill="#0a0a0a"/>
  <!-- Cursive d -->
  <path d="M4 22C6 14 9 8 13 8c2.5 0 2.5 3 1 7-1.2 3.2-3 5.5-5 6.5 1-.2 2.5-1.5 4-4l2-3.5c.8-1.5 1.5-2.5 2.2-2.5.8 0 .5 1-.2 2.8"
        fill="none" stroke="#e2e8f0" stroke-width="1.8" stroke-linecap="round" stroke-linejoin="round"/>
  <!-- Cursive s -->
  <path d="M21 14.5c1.5-2 3-3.5 4.2-3.5 1.5 0 1 1.8-.5 3.2-1.2 1.1-3 1.8-3 2.8 0 1.5 2 1.2 3.5 0 1-.8 1.8-1.8 2.3-3"
        fill="none" stroke="#e2e8f0" stroke-width="1.8" stroke-linecap="round" stroke-linejoin="round"/>
</svg>
